<svg xmlns="http://www.w3.org/2000/svg" version="1.1" xmlns:xlink="http://www.w3.org/1999/xlink" width="512" height="512" x="0" y="0" viewBox="0 0 24 24" style="enable-background:new 0 0 512 512" xml:space="preserve" class=""><g><path d="m12 23.999-.704-.595c-2.202-1.863-9.387-8.328-9.387-13.313C1.909 4.527 6.436 0 12 0s10.091 4.527 10.091 10.091c0 4.985-7.185 11.45-9.387 13.313l-.704.595ZM12 1c-5.013 0-9.091 4.078-9.091 9.091 0 4.672 7.524 11.273 9.032 12.55l.059.05.059-.05c1.508-1.276 9.032-7.878 9.032-12.55C21.091 5.078 17.013 1 12 1Z" fill="#29bc00" opacity="1" data-original="#000000" class=""></path><path d="M12 14c-2.206 0-4-1.794-4-4s1.794-4 4-4 4 1.794 4 4-1.794 4-4 4Zm0-7c-1.654 0-3 1.346-3 3s1.346 3 3 3 3-1.346 3-3-1.346-3-3-3Z" fill="#29bc00" opacity="1" data-original="#000000" class=""></path></g></svg>