<svg xmlns="http://www.w3.org/2000/svg" version="1.1" xmlns:xlink="http://www.w3.org/1999/xlink" width="512" height="512" x="0" y="0" viewBox="0 0 24 24" style="enable-background:new 0 0 512 512" xml:space="preserve" class=""><g><path d="M20.867 3.797a2.598 2.598 0 0 0-2.128-2.229 40.496 40.496 0 0 0-13.479 0 2.599 2.599 0 0 0-2.128 2.229 67.21 67.21 0 0 0-.077 16.086c.065.551.362 1.057.814 1.389.424.311.844.622 1.261.932a2.006 2.006 0 0 0 2.188.144c.362-.205.728-.418 1.099-.64.355-.21.803-.196 1.138.037l1.31.904c.343.235.734.353 1.126.353s.784-.118 1.125-.352l1.312-.905a1.06 1.06 0 0 1 1.138-.037c.373.222.742.437 1.106.643a2.008 2.008 0 0 0 2.187-.144c.419-.312.843-.624 1.269-.937.454-.332.751-.838.816-1.39a67.185 67.185 0 0 0-.077-16.083Zm-.917 15.968a1.02 1.02 0 0 1-.412.699c-.43.313-.855.627-1.275.941a1.01 1.01 0 0 1-1.097.076 71.075 71.075 0 0 1-1.089-.633 2.057 2.057 0 0 0-2.217.075l-1.309.902a.981.981 0 0 1-1.119 0l-1.307-.902a2.058 2.058 0 0 0-2.22-.074 59.21 59.21 0 0 1-1.08.629 1.007 1.007 0 0 1-1.098-.076 209.76 209.76 0 0 0-1.268-.937 1.018 1.018 0 0 1-.411-.698 66.145 66.145 0 0 1 .075-15.846 1.593 1.593 0 0 1 1.302-1.367 39.463 39.463 0 0 1 13.146 0c.68.115 1.215.677 1.302 1.368.66 5.256.686 10.587.075 15.843Z" fill="#474747" opacity="1" data-original="#000000" class=""></path><path d="M15.685 6.436H8.316a.5.5 0 0 0 0 1h7.369a.5.5 0 0 0 0-1ZM15.685 10.449H8.316a.5.5 0 0 0 0 1h7.369a.5.5 0 0 0 0-1ZM12.168 14.415H8.315a.5.5 0 0 0 0 1h3.853a.5.5 0 0 0 0-1Z" fill="#474747" opacity="1" data-original="#000000" class=""></path></g></svg>